<?xml version="1.0" standalone="no"?>
<!DOCTYPE svg PUBLIC "-//W3C//DTD SVG 20010904//EN"
 "http://www.w3.org/TR/2001/REC-SVG-20010904/DTD/svg10.dtd">
<svg version="1.0" xmlns="http://www.w3.org/2000/svg"
 width="152.000000pt" height="152.000000pt" viewBox="0 0 152.000000 152.000000"
 preserveAspectRatio="xMidYMid meet">
<metadata>
Created by potrace 1.11, written by Peter Selinger 2001-2013
</metadata>
<g transform="translate(0.000000,152.000000) scale(0.100000,-0.100000)"
fill="#000000" stroke="none">
<path d="M621 1510 c-274 -58 -489 -245 -576 -499 -30 -89 -39 -143 -38 -236
1 -148 -30 -117 249 -254 135 -67 250 -121 255 -121 13 0 119 53 119 60 -1 3
-84 45 -185 95 l-185 90 0 57 0 58 33 -14 c17 -7 183 -88 369 -180 185 -91
341 -166 346 -166 6 0 51 20 101 44 l90 44 -207 102 c-114 57 -325 161 -469
232 l-261 129 0 91 1 90 123 61 123 61 126 -62 125 -62 126 61 126 61 225
-111 c124 -62 227 -110 229 -109 5 6 -67 140 -95 178 -101 135 -232 228 -396
280 -79 25 -278 36 -354 20z"/>
<path d="M413 1087 c-46 -23 -83 -44 -83 -47 0 -3 209 -108 465 -234 l464
-229 -2 -91 -2 -90 -115 -57 c-63 -32 -121 -58 -127 -58 -7 -1 -67 26 -133 59
l-120 59 -126 -61 -126 -62 -224 112 c-123 62 -226 112 -229 112 -11 0 49
-118 89 -175 143 -200 368 -315 615 -315 107 0 185 14 271 48 288 115 476 378
484 677 5 161 30 133 -253 275 l-248 123 -61 -29 c-34 -16 -62 -31 -62 -34 0
-3 82 -45 183 -95 l182 -90 3 -57 c1 -32 0 -58 -3 -58 -2 0 -169 81 -370 180
-201 99 -371 180 -378 179 -6 0 -49 -19 -94 -42z"/>
</g>
</svg>
